<?xml version="1.0" encoding="UTF-8" standalone="no"?>
<!-- Created with Inkscape (http://www.inkscape.org/) -->

<svg
   width="40.580681mm"
   height="19.835461mm"
   viewBox="0 0 40.580681 19.835461"
   version="1.1"
   id="svg5"
   xml:space="preserve"
   inkscape:version="1.2 (dc2aedaf03, 2022-05-15)"
   sodipodi:docname="azurecrewlogo.svg"
   xmlns:inkscape="http://www.inkscape.org/namespaces/inkscape"
   xmlns:sodipodi="http://sodipodi.sourceforge.net/DTD/sodipodi-0.dtd"
   xmlns="http://www.w3.org/2000/svg"
   xmlns:svg="http://www.w3.org/2000/svg"><sodipodi:namedview
     id="namedview7"
     pagecolor="#505050"
     bordercolor="#eeeeee"
     borderopacity="1"
     inkscape:showpageshadow="0"
     inkscape:pageopacity="0"
     inkscape:pagecheckerboard="0"
     inkscape:deskcolor="#505050"
     inkscape:document-units="mm"
     showgrid="false"
     showguides="false"
     inkscape:zoom="3.659624"
     inkscape:cx="371.07637"
     inkscape:cy="222.01734"
     inkscape:window-width="1440"
     inkscape:window-height="2471"
     inkscape:window-x="1431"
     inkscape:window-y="-9"
     inkscape:window-maximized="1"
     inkscape:current-layer="layer1"><sodipodi:guide
       position="12.8848,17.859248"
       orientation="0,-1"
       id="guide1545"
       inkscape:locked="false" /><sodipodi:guide
       position="12.080483,16.386178"
       orientation="0,-1"
       id="guide1547"
       inkscape:locked="false" /><sodipodi:guide
       position="14.050602,10.448709"
       orientation="0,-1"
       id="guide1549"
       inkscape:locked="false" /><sodipodi:guide
       position="15.686343,8.9846788"
       orientation="0,-1"
       id="guide1551"
       inkscape:locked="false" /><sodipodi:guide
       position="29.983265,14.298569"
       orientation="0,-1"
       id="guide1553"
       inkscape:locked="false" /><sodipodi:guide
       position="28.085445,12.500169"
       orientation="0,-1"
       id="guide1555"
       inkscape:locked="false" /><sodipodi:guide
       position="31.257514,12.843579"
       orientation="0,-1"
       id="guide1557"
       inkscape:locked="false" /><sodipodi:guide
       position="37.339584,13.973239"
       orientation="0,-1"
       id="guide1559"
       inkscape:locked="false" /><sodipodi:guide
       position="34.773004,14.488359"
       orientation="1,0"
       id="guide1561"
       inkscape:locked="false" /><sodipodi:guide
       position="35.884584,15.030599"
       orientation="1,0"
       id="guide1563"
       inkscape:locked="false" /><sodipodi:guide
       position="40.448394,13.277369"
       orientation="1,0"
       id="guide1565"
       inkscape:locked="false" /><sodipodi:guide
       position="33.037854,14.777549"
       orientation="1,0"
       id="guide1567"
       inkscape:locked="false" /><sodipodi:guide
       position="31.935304,15.328829"
       orientation="1,0"
       id="guide1569"
       inkscape:locked="false" /><sodipodi:guide
       position="27.742025,14.922149"
       orientation="1,0"
       id="guide1571"
       inkscape:locked="false" /><sodipodi:guide
       position="26.639485,15.075779"
       orientation="1,0"
       id="guide1573"
       inkscape:locked="false" /><sodipodi:guide
       position="24.922405,13.521379"
       orientation="1,0"
       id="guide1575"
       inkscape:locked="false" /><sodipodi:guide
       position="23.819865,13.421969"
       orientation="1,0"
       id="guide1577"
       inkscape:locked="false" /><sodipodi:guide
       position="19.635619,13.467149"
       orientation="1,0"
       id="guide1579"
       inkscape:locked="false" /><sodipodi:guide
       position="18.542112,13.530409"
       orientation="1,0"
       id="guide1581"
       inkscape:locked="false" /><sodipodi:guide
       position="11.484025,17.190498"
       orientation="1,0"
       id="guide1583"
       inkscape:locked="false" /><sodipodi:guide
       position="17.186526,9.6443987"
       orientation="1,0"
       id="guide1585"
       inkscape:locked="false" /><sodipodi:guide
       position="5.0554305,18.827158"
       orientation="0,-1"
       id="guide1587"
       inkscape:locked="false" /><sodipodi:guide
       position="10.499961,8.9477588"
       orientation="1,0"
       id="guide1591"
       inkscape:locked="false" /><sodipodi:guide
       position="1.8091576,8.9733188"
       orientation="1,0"
       id="guide1593"
       inkscape:locked="false" /><sodipodi:guide
       position="3.2661456,14.008879"
       orientation="1,0"
       id="guide1595"
       inkscape:locked="false" /><sodipodi:guide
       position="4.8381585,18.392618"
       orientation="1,0"
       id="guide1597"
       inkscape:locked="false" /><sodipodi:guide
       position="13.637596,10.448719"
       orientation="1,0"
       id="guide1605"
       inkscape:locked="false" /><sodipodi:guide
       position="15.037071,16.028209"
       orientation="1,0"
       id="guide1607"
       inkscape:locked="false" /><sodipodi:guide
       position="16.494059,17.859258"
       orientation="1,0"
       id="guide1609"
       inkscape:locked="false" /><sodipodi:guide
       position="12.238121,8.9846888"
       orientation="1,0"
       id="guide1674"
       inkscape:locked="false" /></sodipodi:namedview><defs
     id="defs2" /><g
     inkscape:label="Layer 1"
     inkscape:groupmode="layer"
     id="layer1"
     transform="translate(-78.798044,-52.491259)"><g
       id="g17617"
       inkscape:export-filename="..\Desktop\azurecrewlogo.svg"
       inkscape:export-xdpi="96"
       inkscape:export-ydpi="96"><path
         style="fill:#243aee;fill-opacity:1;stroke:#243aee;stroke-width:0.264583px;stroke-linecap:butt;stroke-linejoin:miter;stroke-opacity:1"
         d="m 95.292102,54.467471 c 1.031389,0.002 1.144226,0.996531 0,2.572319 -0.631308,0.869415 -2.400685,3.268225 -2.856463,3.846957 -0.665951,0.845603 -0.669433,0.991264 0,0.991264 h 3.666414 v 1.464029 h -5.065888 c -0.754095,0 -1.266739,-0.779233 0,-2.531977 1.453061,-2.010552 1.591834,-2.208229 2.798951,-3.846957 0.484287,-0.657447 0.477107,-1.022567 0,-1.022567 h -3.553048 l -0.01917,-1.482653 z"
         id="path1676"
         sodipodi:nodetypes="ssssccssssccs" /><path
         style="fill:#243aee;fill-opacity:1;stroke:#243aee;stroke-width:0.264583px;stroke-linecap:butt;stroke-linejoin:miter;stroke-opacity:1"
         d="m 97.340157,54.467471 v 7.41054 c 0,0.876615 0.699775,1.464029 1.421879,1.464029 h 3.207934 c 0.79239,0 1.75048,-0.351353 1.75048,-1.464029 v -7.41054 h -1.10254 v 6.745181 c 0,0.409747 -0.32843,0.679788 -0.69267,0.67814 l -2.824519,-0.01278 c -0.28756,-0.0013 -0.66706,-0.243599 -0.66706,-0.671748 v -6.738792 z"
         id="path1678"
         sodipodi:nodetypes="cssssccsssscc" /><g
         id="g14156"
         style="fill:#243aee;fill-opacity:1;stroke:#243aee"><path
           id="path1680"
           style="fill:#243aee;fill-opacity:1;stroke:#243aee;stroke-width:0.264583px;stroke-linecap:butt;stroke-linejoin:miter;stroke-opacity:1"
           d="m 105.43749,54.467476 v 8.874394 h 1.10278 v -3.499528 l 3.84059,3.499528 h 2.04277 l -3.73052,-3.61735 c 0,0 1.19839,0.0016 1.60507,0.0016 0.40668,0 1.53789,-0.514206 1.53789,-1.698087 v -2.087212 c 0,-0.786235 -0.94001,-1.473295 -1.34669,-1.473295 h -3.94911 z m 1.09916,1.460376 3.52795,0.01292 c 0.87153,0.09421 0.8495,2.087212 0,2.087212 h -3.10524 l -0.41909,0.415995 v -0.415995 z" /></g><path
         style="fill:#243aee;fill-opacity:1;stroke:#243aee;stroke-width:0.264583px;stroke-linecap:butt;stroke-linejoin:miter;stroke-opacity:1"
         d="m 119.24644,54.467471 h -3.92714 c -0.63667,0 -1.74825,0.463285 -1.74825,1.473068 v 5.937472 c 0,1.015291 0.81526,1.464029 1.76102,1.464029 h 3.91437 v -1.464029 h -3.95271 c -0.6111,0 -0.6111,-0.952921 -0.6111,-1.182973 v -0.868487 h 4.56381 V 58.35348 h -4.56381 v -1.594866 c 0,-0.818075 0.34271,-0.818075 1.39072,-0.818075 h 3.17309 z"
         id="path1684"
         sodipodi:nodetypes="cssssccssccccsscc" /><path
         style="fill:#323f3f;fill-opacity:1;stroke:#323f3e;stroke-width:0.264583px;stroke-linecap:butt;stroke-linejoin:miter;stroke-opacity:1"
         d="m 98.433661,65.781716 c 0,0 -2.502532,0 -3.141559,0 -0.639027,0 -1.124688,0.472881 -1.124688,0.920202 0,0.44732 0,3.757493 0,4.460428 0,0.702931 0.43222,0.932981 1.124688,0.932981 0.692467,0 3.141559,0 3.141559,0 v -1.367522 h -3.141559 v -3.476321 h 3.141559 z"
         id="path1686" /><path
         style="fill:#323f3f;fill-opacity:1;stroke:#323f3e;stroke-width:0.264583px;stroke-linecap:butt;stroke-linejoin:miter;stroke-opacity:1"
         d="m 99.803655,72.15923 h 1.111915 v -4.894967 l 1.07356,-0.396197 v -1.08635 c 0,0 -0.40897,-0.02556 -1.09912,-0.02556 -0.69016,0 -1.060793,0.690152 -1.060793,1.060788 0,0.370637 -0.02556,5.342287 -0.02556,5.342287 z"
         id="path1688"
         sodipodi:nodetypes="cccccsscc" /><path
         id="path1690"
         style="fill:#323f3f;fill-opacity:1;stroke:#323f3e;stroke-width:0.264583px;stroke-linecap:butt;stroke-linejoin:miter;stroke-opacity:1"
         d="m 104.73263,65.791333 c -0.7049,0 -1.39165,0.406631 -1.39165,1.075387 v 4.256587 c 0,0.795276 0.37942,1.0573 1.3193,1.0573 h 4.36511 v -1.455208 l -4.57285,-0.03617 0.0124,-0.682645 4.22042,-2.472201 0.002,-1.011308 c 0.009,-0.436675 -0.16829,-0.731738 -1.04489,-0.731738 z m -0.27027,1.447457 h 2.71559 l -2.72283,1.718758 z" /><path
         style="fill:#323f3f;fill-opacity:1;stroke:#323f3e;stroke-width:0.264583px;stroke-linecap:butt;stroke-linejoin:miter;stroke-opacity:1"
         d="m 109.70845,65.754013 1.2508,-0.01278 1.25096,4.594663 1.34062,-4.557872 1.61002,0.009 1.38103,4.536697 1.22715,-4.532954 1.16281,-0.01278 -1.24718,5.845712 c -0.079,0.370129 -0.43589,0.570733 -1.00219,0.570733 -0.43885,0 -0.82322,-0.06177 -0.99359,-0.567292 l -1.34369,-3.986837 -1.22551,3.940651 c -0.13225,0.425262 -0.58437,0.613478 -0.94234,0.613478 -0.51923,-0.0049 -0.78099,-0.06949 -0.9304,-0.633422 -1.53849,-5.806997 -1.53849,-5.806997 -1.53849,-5.806997 z"
         id="path1694"
         sodipodi:nodetypes="ccccccccssscscsc" /><path
         style="fill:#01118b;fill-opacity:1;stroke:#01118b;stroke-width:0.264583px;stroke-linecap:butt;stroke-linejoin:miter;stroke-opacity:1"
         d="m 83.612584,52.831729 5.711539,10.642603 H 78.822845 l 6.326071,-1.20772 -3.235333,-3.976386 z"
         id="path1696" /></g></g></svg>
